<mxfile host="app.diagrams.net" modified="2024-01-17T05:11:23.905Z" agent="Mozilla/5.0 (Windows NT 10.0; Win64; x64) AppleWebKit/537.36 (KHTML, like Gecko) Chrome/120.0.0.0 Safari/537.36 Edg/120.0.0.0" etag="LYGLh-n1PbWvJFKt-CLx" version="22.1.19" type="github">
  <diagram name="第 1 页" id="gY_yhv296UeG84Yx_Pr5">
    <mxGraphModel dx="906" dy="579" grid="1" gridSize="10" guides="1" tooltips="1" connect="1" arrows="1" fold="1" page="1" pageScale="1" pageWidth="827" pageHeight="1169" math="0" shadow="0">
      <root>
        <mxCell id="0" />
        <mxCell id="1" parent="0" />
        <mxCell id="WlAWu1Rouxuwki5-BR6Z-21" value="" style="rounded=1;whiteSpace=wrap;html=1;dashed=1;fillColor=#ffe6cc;strokeColor=#d79b00;" vertex="1" parent="1">
          <mxGeometry x="614.5" y="280" width="320" height="410" as="geometry" />
        </mxCell>
        <mxCell id="qF69uGLi65idaUPn_qMR-87" value="" style="rounded=1;whiteSpace=wrap;html=1;fillColor=#FFFFCC;strokeColor=#d6b656;" parent="1" vertex="1">
          <mxGeometry x="90" y="280" width="500" height="300" as="geometry" />
        </mxCell>
        <mxCell id="qF69uGLi65idaUPn_qMR-1" value="A&lt;sub&gt;r×k&lt;/sub&gt;" style="shape=trapezoid;perimeter=trapezoidPerimeter;whiteSpace=wrap;html=1;fixedSize=1;fontFamily=Times New Roman;fontSize=15;fontStyle=1;fillColor=#FF9999;" parent="1" vertex="1">
          <mxGeometry x="805" y="498" width="100" height="45" as="geometry" />
        </mxCell>
        <mxCell id="qF69uGLi65idaUPn_qMR-2" value="" style="shape=trapezoid;perimeter=trapezoidPerimeter;whiteSpace=wrap;html=1;fixedSize=1;rotation=-180;fontFamily=Times New Roman;fontSize=15;fontStyle=1;fillColor=#FF9999;" parent="1" vertex="1">
          <mxGeometry x="805" y="435" width="100" height="45" as="geometry" />
        </mxCell>
        <mxCell id="qF69uGLi65idaUPn_qMR-3" value="&lt;font style=&quot;font-size: 15px;&quot;&gt;B&lt;/font&gt;&lt;sub&gt;d×r&lt;/sub&gt;" style="text;html=1;strokeColor=none;fillColor=none;align=center;verticalAlign=middle;whiteSpace=wrap;rounded=0;fontFamily=Times New Roman;fontSize=15;fontStyle=1" parent="1" vertex="1">
          <mxGeometry x="825" y="442.5" width="60" height="30" as="geometry" />
        </mxCell>
        <mxCell id="qF69uGLi65idaUPn_qMR-59" style="edgeStyle=orthogonalEdgeStyle;rounded=0;orthogonalLoop=1;jettySize=auto;html=1;exitX=0.5;exitY=0;exitDx=0;exitDy=0;entryX=0.5;entryY=1;entryDx=0;entryDy=0;fontFamily=Times New Roman;fontSize=15;fontStyle=1" parent="1" source="qF69uGLi65idaUPn_qMR-4" target="qF69uGLi65idaUPn_qMR-30" edge="1">
          <mxGeometry relative="1" as="geometry" />
        </mxCell>
        <mxCell id="qF69uGLi65idaUPn_qMR-4" value="Self-Attention" style="rounded=1;whiteSpace=wrap;html=1;fontFamily=Times New Roman;fontSize=15;fontStyle=1;fillColor=#fff2cc;strokeColor=#d6b656;" parent="1" vertex="1">
          <mxGeometry x="110" y="380" width="460" height="40" as="geometry" />
        </mxCell>
        <mxCell id="qF69uGLi65idaUPn_qMR-82" style="edgeStyle=orthogonalEdgeStyle;rounded=0;orthogonalLoop=1;jettySize=auto;html=1;exitX=1;exitY=0.5;exitDx=0;exitDy=0;entryX=0;entryY=0.5;entryDx=0;entryDy=0;" parent="1" source="qF69uGLi65idaUPn_qMR-6" target="qF69uGLi65idaUPn_qMR-74" edge="1">
          <mxGeometry relative="1" as="geometry" />
        </mxCell>
        <mxCell id="qF69uGLi65idaUPn_qMR-6" value="W&lt;sub style=&quot;font-size: 15px;&quot;&gt;q&lt;/sub&gt;" style="rounded=0;whiteSpace=wrap;html=1;fontFamily=Times New Roman;fontSize=15;fontStyle=1;fillColor=#fff2cc;strokeColor=#d6b656;" parent="1" vertex="1">
          <mxGeometry x="130" y="455" width="50" height="40" as="geometry" />
        </mxCell>
        <mxCell id="WlAWu1Rouxuwki5-BR6Z-8" style="edgeStyle=orthogonalEdgeStyle;rounded=0;orthogonalLoop=1;jettySize=auto;html=1;entryX=0.5;entryY=1;entryDx=0;entryDy=0;curved=1;" edge="1" parent="1" target="qF69uGLi65idaUPn_qMR-8">
          <mxGeometry relative="1" as="geometry">
            <mxPoint x="340" y="526" as="sourcePoint" />
          </mxGeometry>
        </mxCell>
        <mxCell id="WlAWu1Rouxuwki5-BR6Z-10" style="edgeStyle=orthogonalEdgeStyle;rounded=0;orthogonalLoop=1;jettySize=auto;html=1;entryX=0.5;entryY=1;entryDx=0;entryDy=0;curved=1;" edge="1" parent="1" target="qF69uGLi65idaUPn_qMR-6">
          <mxGeometry relative="1" as="geometry">
            <mxPoint x="340" y="526" as="sourcePoint" />
          </mxGeometry>
        </mxCell>
        <mxCell id="qF69uGLi65idaUPn_qMR-83" style="edgeStyle=orthogonalEdgeStyle;rounded=0;orthogonalLoop=1;jettySize=auto;html=1;exitX=0;exitY=0.5;exitDx=0;exitDy=0;entryX=1;entryY=0.5;entryDx=0;entryDy=0;" parent="1" source="qF69uGLi65idaUPn_qMR-8" target="qF69uGLi65idaUPn_qMR-75" edge="1">
          <mxGeometry relative="1" as="geometry" />
        </mxCell>
        <mxCell id="qF69uGLi65idaUPn_qMR-8" value="W&lt;sub style=&quot;font-size: 15px;&quot;&gt;v&lt;/sub&gt;" style="rounded=0;whiteSpace=wrap;html=1;fontFamily=Times New Roman;fontSize=15;fontStyle=1;fillColor=#fff2cc;strokeColor=#d6b656;" parent="1" vertex="1">
          <mxGeometry x="510" y="455" width="50" height="40" as="geometry" />
        </mxCell>
        <mxCell id="qF69uGLi65idaUPn_qMR-14" value="&lt;font style=&quot;font-size: 15px;&quot;&gt;W&lt;/font&gt;&lt;sub&gt;d×k&lt;/sub&gt;" style="whiteSpace=wrap;html=1;aspect=fixed;fontFamily=Times New Roman;fontSize=15;fontStyle=1;fillColor=#66B2FF;" parent="1" vertex="1">
          <mxGeometry x="635" y="435" width="105" height="105" as="geometry" />
        </mxCell>
        <mxCell id="qF69uGLi65idaUPn_qMR-15" value="" style="rounded=0;whiteSpace=wrap;html=1;fontFamily=Times New Roman;fontSize=15;fontStyle=1;fillColor=#fff2cc;strokeColor=#d6b656;" parent="1" vertex="1">
          <mxGeometry x="695" y="643.5" width="160" height="20" as="geometry" />
        </mxCell>
        <mxCell id="qF69uGLi65idaUPn_qMR-16" value="x" style="text;html=1;strokeColor=none;fillColor=none;align=center;verticalAlign=middle;whiteSpace=wrap;rounded=0;fontFamily=Times New Roman;fontSize=15;fontStyle=1" parent="1" vertex="1">
          <mxGeometry x="635" y="638.5" width="60" height="30" as="geometry" />
        </mxCell>
        <mxCell id="qF69uGLi65idaUPn_qMR-17" value="" style="shape=curlyBracket;whiteSpace=wrap;html=1;rounded=1;flipH=1;labelPosition=right;verticalLabelPosition=middle;align=left;verticalAlign=middle;rotation=-90;fontFamily=Times New Roman;fontSize=15;fontStyle=1" parent="1" vertex="1">
          <mxGeometry x="764.5" y="550" width="20" height="158" as="geometry" />
        </mxCell>
        <mxCell id="qF69uGLi65idaUPn_qMR-18" value="d" style="text;html=1;strokeColor=none;fillColor=none;align=center;verticalAlign=middle;whiteSpace=wrap;rounded=0;fontFamily=Times New Roman;fontSize=15;fontStyle=1" parent="1" vertex="1">
          <mxGeometry x="745" y="589.5" width="60" height="30" as="geometry" />
        </mxCell>
        <mxCell id="qF69uGLi65idaUPn_qMR-19" value="" style="rounded=0;whiteSpace=wrap;html=1;fontFamily=Times New Roman;fontSize=15;fontStyle=1;fillColor=#fff2cc;strokeColor=#d6b656;" parent="1" vertex="1">
          <mxGeometry x="695" y="315" width="160" height="20" as="geometry" />
        </mxCell>
        <mxCell id="qF69uGLi65idaUPn_qMR-20" value="h" style="text;html=1;strokeColor=none;fillColor=none;align=center;verticalAlign=middle;whiteSpace=wrap;rounded=0;fontFamily=Times New Roman;fontSize=15;fontStyle=1" parent="1" vertex="1">
          <mxGeometry x="630" y="310" width="60" height="30" as="geometry" />
        </mxCell>
        <mxCell id="qF69uGLi65idaUPn_qMR-25" value="" style="html=1;shadow=0;dashed=0;align=center;verticalAlign=middle;shape=mxgraph.arrows2.arrow;dy=0.6;dx=40;notch=0;rotation=-135;fontFamily=Times New Roman;fontSize=15;fontStyle=1;fillColor=#fff2cc;strokeColor=#d6b656;" parent="1" vertex="1">
          <mxGeometry x="687" y="567" width="70" height="35" as="geometry" />
        </mxCell>
        <mxCell id="qF69uGLi65idaUPn_qMR-26" value="" style="html=1;shadow=0;dashed=0;align=center;verticalAlign=middle;shape=mxgraph.arrows2.arrow;dy=0.6;dx=40;notch=0;rotation=-60;fontFamily=Times New Roman;fontSize=15;fontStyle=1;fillColor=#fff2cc;strokeColor=#d6b656;" parent="1" vertex="1">
          <mxGeometry x="790" y="565" width="70" height="35" as="geometry" />
        </mxCell>
        <mxCell id="qF69uGLi65idaUPn_qMR-27" value="" style="html=1;shadow=0;dashed=0;align=center;verticalAlign=middle;shape=mxgraph.arrows2.arrow;dy=0.6;dx=40;notch=0;rotation=-45;fontFamily=Times New Roman;fontSize=15;fontStyle=1;fillColor=#99CCFF;" parent="1" vertex="1">
          <mxGeometry x="687" y="365" width="70" height="40" as="geometry" />
        </mxCell>
        <mxCell id="qF69uGLi65idaUPn_qMR-28" value="" style="html=1;shadow=0;dashed=0;align=center;verticalAlign=middle;shape=mxgraph.arrows2.arrow;dy=0.6;dx=40;notch=0;rotation=-135;fontFamily=Times New Roman;fontSize=15;fontStyle=1;fillColor=#FF9999;" parent="1" vertex="1">
          <mxGeometry x="795" y="365" width="70" height="40" as="geometry" />
        </mxCell>
        <mxCell id="qF69uGLi65idaUPn_qMR-62" style="edgeStyle=orthogonalEdgeStyle;rounded=0;orthogonalLoop=1;jettySize=auto;html=1;exitX=0.5;exitY=0;exitDx=0;exitDy=0;entryX=0.5;entryY=1;entryDx=0;entryDy=0;fontFamily=Times New Roman;fontSize=15;fontStyle=1" parent="1" source="qF69uGLi65idaUPn_qMR-30" target="qF69uGLi65idaUPn_qMR-61" edge="1">
          <mxGeometry relative="1" as="geometry" />
        </mxCell>
        <mxCell id="qF69uGLi65idaUPn_qMR-30" value="Add&amp;amp;Norm" style="rounded=1;whiteSpace=wrap;html=1;fontFamily=Times New Roman;fontSize=15;fontStyle=1;fillColor=#fff2cc;strokeColor=#d6b656;" parent="1" vertex="1">
          <mxGeometry x="110" y="325" width="460" height="40" as="geometry" />
        </mxCell>
        <mxCell id="qF69uGLi65idaUPn_qMR-31" value="LoRA" style="text;html=1;strokeColor=none;fillColor=none;align=center;verticalAlign=middle;whiteSpace=wrap;rounded=0;fontSize=15;fontFamily=Times New Roman;fontStyle=1" parent="1" vertex="1">
          <mxGeometry x="870" y="300" width="60" height="30" as="geometry" />
        </mxCell>
        <mxCell id="WlAWu1Rouxuwki5-BR6Z-14" style="edgeStyle=orthogonalEdgeStyle;rounded=0;orthogonalLoop=1;jettySize=auto;html=1;exitX=0;exitY=0.5;exitDx=0;exitDy=0;exitPerimeter=0;entryX=0.5;entryY=1;entryDx=0;entryDy=0;" edge="1" parent="1" source="qF69uGLi65idaUPn_qMR-36" target="WlAWu1Rouxuwki5-BR6Z-12">
          <mxGeometry relative="1" as="geometry" />
        </mxCell>
        <mxCell id="qF69uGLi65idaUPn_qMR-36" value="" style="verticalLabelPosition=bottom;verticalAlign=top;html=1;shape=mxgraph.flowchart.summing_function;fontFamily=Times New Roman;fontSize=15;fontStyle=1;fillColor=#FFCCCC;direction=south;" parent="1" vertex="1">
          <mxGeometry x="325" y="535" width="30" height="30" as="geometry" />
        </mxCell>
        <mxCell id="qF69uGLi65idaUPn_qMR-89" style="edgeStyle=orthogonalEdgeStyle;rounded=0;orthogonalLoop=1;jettySize=auto;html=1;exitX=0.5;exitY=0;exitDx=0;exitDy=0;entryX=0.5;entryY=1;entryDx=0;entryDy=0;" parent="1" source="qF69uGLi65idaUPn_qMR-37" target="qF69uGLi65idaUPn_qMR-87" edge="1">
          <mxGeometry relative="1" as="geometry" />
        </mxCell>
        <mxCell id="qF69uGLi65idaUPn_qMR-37" value="Inputs Embedding" style="rounded=1;whiteSpace=wrap;html=1;fontFamily=Times New Roman;fontSize=15;fontStyle=1;fillColor=#fff2cc;strokeColor=#d6b656;" parent="1" vertex="1">
          <mxGeometry x="110" y="595" width="460" height="40" as="geometry" />
        </mxCell>
        <mxCell id="qF69uGLi65idaUPn_qMR-44" style="edgeStyle=orthogonalEdgeStyle;rounded=0;orthogonalLoop=1;jettySize=auto;html=1;exitX=0.5;exitY=0;exitDx=0;exitDy=0;entryX=0.5;entryY=1;entryDx=0;entryDy=0;fontFamily=Times New Roman;fontSize=15;fontStyle=1" parent="1" source="qF69uGLi65idaUPn_qMR-43" target="qF69uGLi65idaUPn_qMR-37" edge="1">
          <mxGeometry relative="1" as="geometry" />
        </mxCell>
        <mxCell id="qF69uGLi65idaUPn_qMR-43" value="Prompts" style="rounded=1;whiteSpace=wrap;html=1;fontFamily=Times New Roman;fontSize=15;fontStyle=1;fillColor=#FAD7AC;" parent="1" vertex="1">
          <mxGeometry x="110" y="649.5" width="460" height="40" as="geometry" />
        </mxCell>
        <mxCell id="qF69uGLi65idaUPn_qMR-56" value="" style="group;rotation=-180;fontFamily=Times New Roman;fontSize=15;fontStyle=1" parent="1" vertex="1" connectable="0">
          <mxGeometry x="398.5" y="543" width="30" height="30" as="geometry" />
        </mxCell>
        <mxCell id="qF69uGLi65idaUPn_qMR-47" value="" style="ellipse;whiteSpace=wrap;html=1;aspect=fixed;rotation=-180;fontFamily=Times New Roman;fontSize=15;fontStyle=1;fillColor=#CCE5FF;" parent="qF69uGLi65idaUPn_qMR-56" vertex="1">
          <mxGeometry x="-6.333333333333332" y="-6.380281690140845" width="28.124999999999996" height="28.124999999999996" as="geometry" />
        </mxCell>
        <mxCell id="qF69uGLi65idaUPn_qMR-54" value="" style="endArrow=none;html=1;rounded=0;entryX=1;entryY=0.5;entryDx=0;entryDy=0;exitX=0;exitY=0.5;exitDx=0;exitDy=0;curved=1;fontFamily=Times New Roman;fontSize=15;fontStyle=1" parent="qF69uGLi65idaUPn_qMR-56" source="qF69uGLi65idaUPn_qMR-47" target="qF69uGLi65idaUPn_qMR-47" edge="1">
          <mxGeometry width="50" height="50" relative="1" as="geometry">
            <mxPoint x="26.666666666666664" y="7.119718309859154" as="sourcePoint" />
            <mxPoint x="7.166666666666666" y="23.619718309859152" as="targetPoint" />
            <Array as="points">
              <mxPoint x="13.916666666666666" y="0.36971830985915494" />
              <mxPoint x="0.41666666666666663" y="16.869718309859152" />
            </Array>
          </mxGeometry>
        </mxCell>
        <mxCell id="qF69uGLi65idaUPn_qMR-58" value="Positional&lt;br style=&quot;font-size: 15px;&quot;&gt;Embedding" style="text;html=1;strokeColor=none;fillColor=none;align=center;verticalAlign=middle;whiteSpace=wrap;rounded=0;fontSize=15;fontFamily=Times New Roman;fontStyle=1" parent="1" vertex="1">
          <mxGeometry x="440" y="530" width="70" height="40" as="geometry" />
        </mxCell>
        <mxCell id="qF69uGLi65idaUPn_qMR-65" style="edgeStyle=orthogonalEdgeStyle;rounded=0;orthogonalLoop=1;jettySize=auto;html=1;exitX=1;exitY=0.5;exitDx=0;exitDy=0;entryX=0;entryY=0.5;entryDx=0;entryDy=0;" parent="1" source="qF69uGLi65idaUPn_qMR-60" target="qF69uGLi65idaUPn_qMR-64" edge="1">
          <mxGeometry relative="1" as="geometry" />
        </mxCell>
        <mxCell id="qF69uGLi65idaUPn_qMR-60" value="Outputs" style="rounded=1;whiteSpace=wrap;html=1;fontFamily=Times New Roman;fontSize=15;fontStyle=1;fillColor=#FFB366;strokeColor=#d79b00;" parent="1" vertex="1">
          <mxGeometry x="110" y="220" width="460" height="40" as="geometry" />
        </mxCell>
        <mxCell id="qF69uGLi65idaUPn_qMR-63" style="edgeStyle=orthogonalEdgeStyle;rounded=0;orthogonalLoop=1;jettySize=auto;html=1;exitX=0.5;exitY=0;exitDx=0;exitDy=0;fontFamily=Times New Roman;fontSize=15;fontStyle=1" parent="1" source="qF69uGLi65idaUPn_qMR-61" target="qF69uGLi65idaUPn_qMR-60" edge="1">
          <mxGeometry relative="1" as="geometry" />
        </mxCell>
        <mxCell id="qF69uGLi65idaUPn_qMR-61" value="..." style="text;html=1;strokeColor=none;fillColor=none;align=center;verticalAlign=middle;whiteSpace=wrap;rounded=0;fontFamily=Times New Roman;fontSize=15;fontStyle=1" parent="1" vertex="1">
          <mxGeometry x="290" y="280" width="100" height="30" as="geometry" />
        </mxCell>
        <mxCell id="qF69uGLi65idaUPn_qMR-64" value="Relations" style="rounded=0;whiteSpace=wrap;html=1;fontFamily=Times New Roman;fontSize=15;fontStyle=1;fillColor=#FF9933;" parent="1" vertex="1">
          <mxGeometry x="732.5" y="217.5" width="85" height="45" as="geometry" />
        </mxCell>
        <mxCell id="qF69uGLi65idaUPn_qMR-66" value="Extract" style="text;html=1;strokeColor=none;fillColor=none;align=center;verticalAlign=middle;whiteSpace=wrap;rounded=0;fontFamily=Times New Roman;fontSize=15;fontStyle=1" parent="1" vertex="1">
          <mxGeometry x="610" y="210" width="80" height="30" as="geometry" />
        </mxCell>
        <mxCell id="qF69uGLi65idaUPn_qMR-70" value="" style="shape=cross;whiteSpace=wrap;html=1;fillColor=#fff2cc;strokeColor=#d6b656;" parent="1" vertex="1">
          <mxGeometry x="760" y="360" width="30" height="30" as="geometry" />
        </mxCell>
        <mxCell id="qF69uGLi65idaUPn_qMR-71" style="edgeStyle=orthogonalEdgeStyle;rounded=0;orthogonalLoop=1;jettySize=auto;html=1;exitX=0.5;exitY=1;exitDx=0;exitDy=0;" parent="1" source="qF69uGLi65idaUPn_qMR-15" target="qF69uGLi65idaUPn_qMR-15" edge="1">
          <mxGeometry relative="1" as="geometry" />
        </mxCell>
        <mxCell id="qF69uGLi65idaUPn_qMR-84" style="edgeStyle=orthogonalEdgeStyle;rounded=0;orthogonalLoop=1;jettySize=auto;html=1;exitX=0.5;exitY=0;exitDx=0;exitDy=0;entryX=0.5;entryY=1;entryDx=0;entryDy=0;curved=1;" parent="1" source="qF69uGLi65idaUPn_qMR-74" target="qF69uGLi65idaUPn_qMR-4" edge="1">
          <mxGeometry relative="1" as="geometry" />
        </mxCell>
        <mxCell id="qF69uGLi65idaUPn_qMR-74" value="LoRA" style="rounded=1;whiteSpace=wrap;html=1;fontSize=15;fontFamily=Times New Roman;dashed=1;fillColor=#ffe6cc;strokeColor=#d79b00;" parent="1" vertex="1">
          <mxGeometry x="210" y="460" width="70" height="30" as="geometry" />
        </mxCell>
        <mxCell id="qF69uGLi65idaUPn_qMR-86" style="edgeStyle=orthogonalEdgeStyle;rounded=0;orthogonalLoop=1;jettySize=auto;html=1;exitX=0.5;exitY=0;exitDx=0;exitDy=0;entryX=0.5;entryY=1;entryDx=0;entryDy=0;curved=1;" parent="1" source="qF69uGLi65idaUPn_qMR-75" target="qF69uGLi65idaUPn_qMR-4" edge="1">
          <mxGeometry relative="1" as="geometry" />
        </mxCell>
        <mxCell id="qF69uGLi65idaUPn_qMR-75" value="LoRA" style="rounded=1;whiteSpace=wrap;html=1;fontSize=15;fontFamily=Times New Roman;dashed=1;fillColor=#ffe6cc;strokeColor=#d79b00;" parent="1" vertex="1">
          <mxGeometry x="400" y="460" width="70" height="30" as="geometry" />
        </mxCell>
        <mxCell id="qF69uGLi65idaUPn_qMR-88" value="Open-source LLMs" style="text;html=1;strokeColor=none;fillColor=none;align=center;verticalAlign=middle;whiteSpace=wrap;rounded=0;fontSize=15;fontFamily=Times New Roman;fontStyle=1" parent="1" vertex="1">
          <mxGeometry x="460" y="290" width="90" height="30" as="geometry" />
        </mxCell>
        <mxCell id="WlAWu1Rouxuwki5-BR6Z-3" value="" style="edgeStyle=orthogonalEdgeStyle;rounded=0;orthogonalLoop=1;jettySize=auto;html=1;" edge="1" parent="1" source="qF69uGLi65idaUPn_qMR-47" target="qF69uGLi65idaUPn_qMR-36">
          <mxGeometry relative="1" as="geometry" />
        </mxCell>
        <mxCell id="WlAWu1Rouxuwki5-BR6Z-13" style="edgeStyle=orthogonalEdgeStyle;rounded=0;orthogonalLoop=1;jettySize=auto;html=1;exitX=0.5;exitY=0;exitDx=0;exitDy=0;" edge="1" parent="1" source="WlAWu1Rouxuwki5-BR6Z-12">
          <mxGeometry relative="1" as="geometry">
            <mxPoint x="340" y="420" as="targetPoint" />
          </mxGeometry>
        </mxCell>
        <mxCell id="WlAWu1Rouxuwki5-BR6Z-12" value="W&lt;sub style=&quot;font-size: 15px;&quot;&gt;k&lt;/sub&gt;" style="rounded=0;whiteSpace=wrap;html=1;fontFamily=Times New Roman;fontSize=15;fontStyle=1;fillColor=#fff2cc;strokeColor=#d6b656;" vertex="1" parent="1">
          <mxGeometry x="315" y="455" width="50" height="40" as="geometry" />
        </mxCell>
      </root>
    </mxGraphModel>
  </diagram>
</mxfile>
